# Blender v2.77 (sub 1) OBJ File: 'Barrel_Cacti.blend'
# www.blender.org
o Barrel_Cacti_2_Plane
v -0.390916 -0.440789 0.311745
v -0.263102 -0.440789 0.209817
v -0.390916 0.447399 0.311745
v -0.263102 0.447399 0.209817
v -0.487464 -0.440789 -0.111260
v -0.328083 -0.440789 -0.074883
v -0.487464 0.447399 -0.111261
v -0.328083 0.447399 -0.074883
v -0.216942 -0.440789 -0.450484
v -0.146011 -0.440789 -0.303194
v -0.216942 0.447399 -0.450484
v -0.146011 0.447399 -0.303194
v 0.216942 -0.440789 -0.450484
v 0.146010 -0.440789 -0.303194
v 0.216942 0.447399 -0.450484
v 0.146011 0.447399 -0.303194
v 0.487464 -0.440789 -0.111260
v 0.328083 -0.440789 -0.074883
v 0.487464 0.447399 -0.111260
v 0.328083 0.447399 -0.074883
v 0.390916 -0.440789 0.311745
v 0.263102 -0.440789 0.209817
v 0.390916 0.447399 0.311745
v 0.263102 0.447399 0.209817
v -0.000000 -0.440789 0.500000
v 0.000000 -0.440789 0.336520
v -0.000000 0.447399 0.500000
v -0.000000 0.447399 0.336520
v 0.000000 -0.500000 -0.232527
v 0.000000 0.447399 -0.246971
v 0.145047 -0.500000 -0.301192
v 0.154056 0.447399 -0.319901
v 0.181797 -0.500000 -0.144978
v 0.193090 0.447399 -0.153984
v 0.325917 -0.500000 -0.074388
v 0.346161 0.447399 -0.079009
v 0.226697 -0.500000 0.051742
v 0.240779 0.447399 0.054956
v 0.261365 -0.500000 0.208432
v 0.277600 0.447399 0.221379
v 0.100890 -0.500000 0.209500
v 0.107157 0.447399 0.222513
v 0.000000 -0.500000 0.334298
v 0.000000 0.447399 0.355064
v -0.100890 -0.500000 0.209500
v -0.107157 0.447399 0.222513
v -0.261365 -0.500000 0.208432
v -0.277600 0.447399 0.221379
v -0.226697 -0.500000 0.051742
v -0.240779 0.447399 0.054956
v -0.325917 -0.500000 -0.074388
v -0.346161 0.447399 -0.079009
v -0.181797 -0.500000 -0.144978
v -0.193090 0.447399 -0.153984
v -0.145047 -0.500000 -0.301193
v -0.154056 0.447399 -0.319901
v 0.000000 -0.319369 -0.278227
v 0.000000 0.204063 -0.278227
v 0.173554 0.204063 -0.360388
v 0.173554 -0.319369 -0.360388
v 0.217527 0.204063 -0.173472
v 0.217527 -0.319369 -0.173472
v 0.389971 0.204063 -0.089008
v 0.389971 -0.319369 -0.089008
v 0.271251 0.204063 0.061911
v 0.271251 -0.319369 0.061911
v 0.312733 0.204063 0.249396
v 0.312733 -0.319369 0.249396
v 0.120718 0.204063 0.250674
v 0.120718 -0.319369 0.250674
v 0.000000 0.204063 0.400000
v 0.000000 -0.319369 0.400000
v -0.120718 0.204063 0.250674
v -0.120718 -0.319369 0.250674
v -0.312733 0.204063 0.249396
v -0.312733 -0.319369 0.249396
v -0.271251 0.204063 0.061911
v -0.271251 -0.319369 0.061911
v -0.389971 0.204063 -0.089008
v -0.389971 -0.319369 -0.089008
v -0.217527 0.204063 -0.173472
v -0.217527 -0.319369 -0.173472
v -0.173553 0.204063 -0.360388
v -0.173553 -0.319369 -0.360388
v 0.000000 0.495010 -0.015670
v 0.009775 0.495010 -0.020298
v 0.012252 0.495010 -0.009770
v 0.021964 0.495010 -0.005013
v 0.015278 0.495010 0.003487
v 0.017614 0.495010 0.014047
v 0.006799 0.495010 0.014119
v 0.000000 0.495010 0.022529
v -0.006799 0.495010 0.014119
v -0.017614 0.495010 0.014047
v -0.015277 0.495010 0.003487
v -0.021964 0.495010 -0.005013
v -0.012252 0.495010 -0.009770
v -0.009775 0.495010 -0.020298
v 0.000000 0.495010 -0.000000
vt 0.8622 0.0740
vt 1.0000 0.0740
vt 1.0000 0.9172
vt 0.8622 0.9172
vt 0.8619 0.0737
vt 0.9997 0.0737
vt 0.9997 0.9169
vt 0.8619 0.9169
vt 0.8619 0.0737
vt 0.9997 0.0737
vt 0.9997 0.9169
vt 0.8619 0.9169
vt 0.8619 0.0737
vt 0.9997 0.0737
vt 0.9997 0.9169
vt 0.8619 0.9169
vt 0.8619 0.0737
vt 0.9997 0.0737
vt 0.9997 0.9169
vt 0.8619 0.9169
vt 0.8619 0.0737
vt 0.9997 0.0737
vt 0.9997 0.9169
vt 0.8619 0.9169
vt 0.8619 0.0737
vt 0.9997 0.0737
vt 0.9997 0.9169
vt 0.8619 0.9169
vt 0.6268 0.6002
vt 0.4940 0.7818
vt 0.3146 0.7161
vt 0.3146 0.5771
vt 0.1342 0.7789
vt 0.0177 0.6000
vt 0.6268 0.6002
vt 0.4940 0.7818
vt 0.3146 0.7161
vt 0.3146 0.5771
vt 0.1342 0.7789
vt 0.0177 0.6000
vt 0.6268 0.6002
vt 0.4940 0.7818
vt 0.3146 0.7161
vt 0.3146 0.5771
vt 0.1342 0.7789
vt 0.0177 0.6000
vt 0.6276 0.6005
vt 0.4947 0.7821
vt 0.3154 0.7165
vt 0.3153 0.5775
vt 0.1349 0.7793
vt 0.0185 0.6004
vt 0.6268 0.6002
vt 0.4940 0.7818
vt 0.3146 0.7161
vt 0.3145 0.5771
vt 0.1342 0.7789
vt 0.0177 0.6000
vt 0.6268 0.6002
vt 0.4940 0.7818
vt 0.3146 0.7161
vt 0.3146 0.5771
vt 0.1342 0.7789
vt 0.0177 0.6000
vt 0.3209 0.9555
vt 0.3092 0.9488
vt 0.6268 0.6002
vt 0.4940 0.7818
vt 0.3146 0.7161
vt 0.3146 0.5771
vt 0.1342 0.7789
vt 0.0177 0.6000
vt 0.3092 0.9488
vt 0.2971 0.9554
vt 0.3305 0.0640
vt 0.3310 0.2107
vt 0.0228 0.1898
vt 0.0585 0.0353
vt 0.5981 0.0384
vt 0.6268 0.1901
vt 0.3305 0.0640
vt 0.3310 0.2107
vt 0.0228 0.1898
vt 0.0585 0.0353
vt 0.5981 0.0384
vt 0.6268 0.1901
vt 0.3304 0.0639
vt 0.3309 0.2107
vt 0.0227 0.1898
vt 0.0584 0.0353
vt 0.5980 0.0384
vt 0.6267 0.1901
vt 0.3312 0.0643
vt 0.3318 0.2111
vt 0.0235 0.1901
vt 0.0592 0.0357
vt 0.5989 0.0388
vt 0.6276 0.1905
vt 0.3305 0.0640
vt 0.3310 0.2107
vt 0.0228 0.1898
vt 0.0585 0.0353
vt 0.5981 0.0384
vt 0.6268 0.1901
vt 0.3305 0.0640
vt 0.3310 0.2107
vt 0.0228 0.1898
vt 0.0585 0.0353
vt 0.5981 0.0384
vt 0.6268 0.1901
vt 0.3305 0.0640
vt 0.3310 0.2107
vt 0.0228 0.1898
vt 0.0585 0.0353
vt 0.5981 0.0384
vt 0.6268 0.1901
vt 0.3092 0.9488
vt 0.2971 0.9554
vt 0.3210 0.9555
vt 0.3093 0.9487
vt 0.3092 0.9488
vt 0.2971 0.9554
vt 0.3092 0.9488
vt 0.2971 0.9554
vt 0.3217 0.9559
vt 0.3100 0.9491
vt 0.2971 0.9554
vt 0.3209 0.9555
vt 0.2971 0.9554
vt 0.3209 0.9555
vt 0.2978 0.9558
vt 0.3209 0.9555
vt 0.3209 0.9555
vt 0.2838 0.9515
vt 0.3005 0.9515
vt 0.3110 0.9619
vt 0.3299 0.9692
vt 0.3260 0.9770
vt 0.2874 0.9593
vt 0.3448 0.9656
vt 0.2771 0.9656
vt 0.3345 0.9593
vt 0.2921 0.9692
vt 0.3381 0.9515
vt 0.2959 0.9770
vt 0.3215 0.9515
vt 0.3110 0.9735
vt 0.3110 0.9452
vn 0.6235 0.0000 0.7818
vn -0.2225 0.0000 0.9749
vn -0.9010 0.0000 0.4339
vn -0.9010 0.0000 -0.4339
vn -0.2225 0.0000 -0.9749
vn 0.6235 0.0000 -0.7818
vn 1.0000 0.0000 0.0000
vn -0.4250 0.1153 -0.8978
vn 0.9669 0.1153 -0.2275
vn 0.4369 0.1153 -0.8921
vn 0.7807 0.1153 0.6141
vn 0.9699 0.1153 -0.2146
vn 0.0066 0.1153 0.9933
vn 0.7725 0.1153 0.6245
vn -0.7725 0.1153 0.6245
vn -0.0066 0.1153 0.9933
vn -0.9699 0.1153 -0.2146
vn -0.7807 0.1153 0.6141
vn -0.4369 0.1153 -0.8921
vn -0.1745 0.9750 0.1373
vn -0.9669 0.1153 -0.2275
vn 0.4250 0.1153 -0.8978
vn 0.0015 0.9750 0.2221
vn 0.4171 -0.2229 -0.8811
vn 0.4279 0.0000 -0.9038
vn -0.9489 -0.2229 -0.2232
vn -0.9734 0.0000 -0.2290
vn -0.4288 -0.2229 -0.8755
vn -0.4399 0.0000 -0.8981
vn -0.7662 -0.2229 0.6027
vn -0.7860 0.0000 0.6183
vn -0.9518 -0.2229 -0.2106
vn -0.9764 0.0000 -0.2160
vn -0.0065 -0.2229 0.9748
vn -0.0067 0.0000 1.0000
vn -0.7581 -0.2229 0.6129
vn -0.7777 0.0000 0.6287
vn 0.7581 -0.2229 0.6129
vn 0.7777 0.0000 0.6287
vn 0.0065 -0.2229 0.9748
vn 0.0067 0.0000 1.0000
vn 0.9518 -0.2229 -0.2106
vn 0.9764 0.0000 -0.2160
vn 0.7662 -0.2229 0.6027
vn 0.7860 0.0000 0.6183
vn 0.4288 -0.2229 -0.8755
vn 0.4399 0.0000 -0.8981
vn 0.9489 -0.2229 -0.2232
vn 0.9734 0.0000 -0.2290
vn -0.4171 -0.2229 -0.8811
vn -0.4279 0.0000 -0.9038
vn 0.1745 0.9750 0.1373
vn -0.0015 0.9750 0.2221
vn 0.0950 0.9750 -0.2007
vn 0.2162 0.9750 -0.0509
vn 0.1727 0.9750 0.1396
vn -0.0977 0.9750 -0.1994
vn 0.2168 0.9750 -0.0480
vn -0.2168 0.9750 -0.0480
vn 0.0977 0.9750 -0.1994
vn -0.1727 0.9750 0.1396
vn -0.0950 0.9750 -0.2007
vn -0.2162 0.9750 -0.0509
vn 0.0000 1.0000 0.0000
s off
f 1/1/1 2/2/1 4/3/1 3/4/1
f 5/5/2 6/6/2 8/7/2 7/8/2
f 9/9/3 10/10/3 12/11/3 11/12/3
f 13/13/4 14/14/4 16/15/4 15/16/4
f 17/17/5 18/18/5 20/19/5 19/20/5
f 21/21/6 22/22/6 24/23/6 23/24/6
f 25/25/7 26/26/7 28/27/7 27/28/7
f 58/29/8 30/30/8 32/31/8 59/32/8
f 59/32/9 32/31/9 34/33/9 61/34/9
f 61/35/10 34/36/10 36/37/10 63/38/10
f 63/38/11 36/37/11 38/39/11 65/40/11
f 65/41/12 38/42/12 40/43/12 67/44/12
f 67/44/13 40/43/13 42/45/13 69/46/13
f 69/47/14 42/48/14 44/49/14 71/50/14
f 71/50/15 44/49/15 46/51/15 73/52/15
f 73/53/16 46/54/16 48/55/16 75/56/16
f 75/56/17 48/55/17 50/57/17 77/58/17
f 77/59/18 50/60/18 52/61/18 79/62/18
f 79/62/19 52/61/19 54/63/19 81/64/19
f 52/61/20 50/60/20 95/65/20 96/66/20
f 81/67/21 54/68/21 56/69/21 83/70/21
f 83/70/22 56/69/22 30/71/22 58/72/22
f 42/45/23 40/43/23 90/73/23 91/74/23
f 55/75/24 84/76/24 57/77/24 29/78/24
f 84/76/25 83/70/25 58/72/25 57/77/25
f 53/79/26 82/80/26 84/76/26 55/75/26
f 82/80/27 81/67/27 83/70/27 84/76/27
f 51/81/28 80/82/28 82/83/28 53/84/28
f 80/82/29 79/62/29 81/64/29 82/83/29
f 49/85/30 78/86/30 80/82/30 51/81/30
f 78/86/31 77/59/31 79/62/31 80/82/31
f 47/87/32 76/88/32 78/89/32 49/90/32
f 76/88/33 75/56/33 77/58/33 78/89/33
f 45/91/34 74/92/34 76/88/34 47/87/34
f 74/92/35 73/53/35 75/56/35 76/88/35
f 43/93/36 72/94/36 74/95/36 45/96/36
f 72/94/37 71/50/37 73/52/37 74/95/37
f 41/97/38 70/98/38 72/94/38 43/93/38
f 70/98/39 69/47/39 71/50/39 72/94/39
f 39/99/40 68/100/40 70/101/40 41/102/40
f 68/100/41 67/44/41 69/46/41 70/101/41
f 37/103/42 66/104/42 68/100/42 39/99/42
f 66/104/43 65/41/43 67/44/43 68/100/43
f 35/105/44 64/106/44 66/107/44 37/108/44
f 64/106/45 63/38/45 65/40/45 66/107/45
f 33/109/46 62/110/46 64/106/46 35/105/46
f 62/110/47 61/35/47 63/38/47 64/106/47
f 31/111/48 60/112/48 62/113/48 33/114/48
f 60/112/49 59/32/49 61/34/49 62/113/49
f 29/115/50 57/116/50 60/112/50 31/111/50
f 57/116/51 58/29/51 59/32/51 60/112/51
f 38/39/52 36/37/52 88/117/52 89/118/52
f 48/55/53 46/54/53 93/119/53 94/120/53
f 30/71/54 56/69/54 98/121/54 85/122/54
f 34/33/55 32/31/55 86/123/55 87/124/55
f 44/49/56 42/48/56 91/125/56 92/126/56
f 54/63/57 52/61/57 96/66/57 97/127/57
f 40/43/58 38/42/58 89/128/58 90/73/58
f 50/57/59 48/55/59 94/120/59 95/129/59
f 36/37/60 34/36/60 87/130/60 88/117/60
f 46/51/61 44/49/61 92/126/61 93/131/61
f 32/31/62 30/30/62 85/132/62 86/123/62
f 56/69/63 54/68/63 97/133/63 98/121/63
f 94/134/64 93/135/64 99/136/64
f 87/137/64 86/138/64 99/136/64
f 95/139/64 94/134/64 99/136/64
f 88/140/64 87/137/64 99/136/64
f 96/141/64 95/139/64 99/136/64
f 89/142/64 88/140/64 99/136/64
f 97/143/64 96/141/64 99/136/64
f 90/144/64 89/142/64 99/136/64
f 98/145/64 97/143/64 99/136/64
f 91/146/64 90/144/64 99/136/64
f 85/147/64 98/145/64 99/136/64
f 92/148/64 91/146/64 99/136/64
f 93/135/64 92/148/64 99/136/64
f 86/138/64 85/147/64 99/136/64
