# Blender v2.77 (sub 1) OBJ File: 'Barrel_Cacti.blend'
# www.blender.org
o Barrel_Cacti_1_Plane.002
v -0.340872 -0.440789 0.271836
v -0.229420 -0.440789 0.182957
v -0.340872 -0.040866 0.271836
v -0.229420 -0.040866 0.182957
v -0.425061 -0.440789 -0.097017
v -0.286083 -0.440789 -0.065296
v -0.425061 -0.040866 -0.097017
v -0.286083 -0.040866 -0.065297
v -0.189170 -0.440789 -0.392815
v -0.127319 -0.440789 -0.264380
v -0.189170 -0.040866 -0.392815
v -0.127319 -0.040866 -0.264380
v 0.189170 -0.440789 -0.392815
v 0.127319 -0.440789 -0.264380
v 0.189170 -0.040866 -0.392815
v 0.127319 -0.040866 -0.264380
v 0.425061 -0.440789 -0.097017
v 0.286083 -0.440789 -0.065297
v 0.425061 -0.040866 -0.097017
v 0.286083 -0.040866 -0.065297
v 0.340872 -0.440789 0.271836
v 0.229421 -0.440789 0.182957
v 0.340872 -0.040866 0.271837
v 0.229421 -0.040866 0.182957
v -0.000000 -0.440789 0.435992
v 0.000000 -0.440789 0.293440
v -0.000000 -0.040866 0.435992
v -0.000000 -0.040866 0.293440
v 0.000000 -0.499085 -0.202760
v 0.000000 -0.029907 -0.195636
v 0.126478 -0.499085 -0.262635
v 0.122034 -0.029907 -0.253407
v 0.158524 -0.499085 -0.126419
v 0.152954 -0.029907 -0.121977
v 0.284194 -0.499085 -0.064865
v 0.274209 -0.029907 -0.062586
v 0.197676 -0.499085 0.045118
v 0.190731 -0.029907 0.043533
v 0.227906 -0.499085 0.181749
v 0.219899 -0.029907 0.175363
v 0.087974 -0.499085 0.182680
v 0.084883 -0.029907 0.176262
v 0.000000 -0.499085 0.291503
v 0.000000 -0.029907 0.281261
v -0.087974 -0.499085 0.182680
v -0.084883 -0.029907 0.176262
v -0.227906 -0.499085 0.181749
v -0.219898 -0.029907 0.175363
v -0.197676 -0.499085 0.045118
v -0.190731 -0.029907 0.043533
v -0.284194 -0.499085 -0.064865
v -0.274209 -0.029907 -0.062586
v -0.158524 -0.499085 -0.126419
v -0.152954 -0.029907 -0.121977
v -0.126478 -0.499085 -0.262635
v -0.122034 -0.029907 -0.253407
v 0.000000 -0.408770 -0.231072
v 0.000000 -0.147054 -0.234660
v 0.146377 -0.147054 -0.303956
v 0.144139 -0.408770 -0.299308
v 0.183465 -0.147054 -0.146308
v 0.180660 -0.408770 -0.144071
v 0.328907 -0.147054 -0.075071
v 0.323878 -0.408770 -0.073923
v 0.228777 -0.147054 0.052217
v 0.225279 -0.408770 0.051418
v 0.263763 -0.147054 0.210344
v 0.259730 -0.408770 0.207127
v 0.101815 -0.147054 0.211422
v 0.100259 -0.408770 0.208189
v 0.000000 -0.147054 0.337365
v 0.000000 -0.408770 0.332207
v -0.101815 -0.147054 0.211422
v -0.100258 -0.408770 0.208189
v -0.263763 -0.147054 0.210344
v -0.259730 -0.408770 0.207128
v -0.228777 -0.147054 0.052217
v -0.225279 -0.408770 0.051418
v -0.328907 -0.147054 -0.075071
v -0.323878 -0.408770 -0.073923
v -0.183465 -0.147054 -0.146308
v -0.180660 -0.408770 -0.144071
v -0.146377 -0.147054 -0.303956
v -0.144139 -0.408770 -0.299308
v 0.000000 -0.001580 -0.013664
v 0.008524 -0.001580 -0.017699
v 0.010683 -0.001580 -0.008520
v 0.019152 -0.001580 -0.004371
v 0.013322 -0.001580 0.003041
v 0.015359 -0.001580 0.012248
v 0.005929 -0.001580 0.012311
v 0.000000 -0.001580 0.019645
v -0.005929 -0.001580 0.012311
v -0.015359 -0.001580 0.012248
v -0.013322 -0.001580 0.003041
v -0.019152 -0.001580 -0.004371
v -0.010683 -0.001580 -0.008520
v -0.008524 -0.001580 -0.017699
v 0.000000 -0.001580 -0.000000
vt 0.8622 0.2724
vt 1.0000 0.2724
vt 1.0000 0.6678
vt 0.8622 0.6678
vt 0.8619 0.2722
vt 0.9997 0.2722
vt 0.9997 0.6676
vt 0.8619 0.6676
vt 0.8619 0.2722
vt 0.9997 0.2722
vt 0.9997 0.6676
vt 0.8619 0.6676
vt 0.8619 0.2722
vt 0.9997 0.2722
vt 0.9997 0.6676
vt 0.8619 0.6676
vt 0.8619 0.2722
vt 0.9997 0.2722
vt 0.9997 0.6676
vt 0.8619 0.6676
vt 0.8619 0.2722
vt 0.9997 0.2722
vt 0.9997 0.6676
vt 0.8619 0.6676
vt 0.8619 0.2722
vt 0.9997 0.2722
vt 0.9997 0.6676
vt 0.8619 0.6676
vt 0.6268 0.6002
vt 0.4940 0.7818
vt 0.3146 0.7161
vt 0.3146 0.5771
vt 0.1342 0.7789
vt 0.0177 0.6000
vt 0.6268 0.6002
vt 0.4940 0.7818
vt 0.3146 0.7161
vt 0.3146 0.5771
vt 0.1342 0.7789
vt 0.0177 0.6000
vt 0.6268 0.6002
vt 0.4940 0.7818
vt 0.3146 0.7161
vt 0.3146 0.5771
vt 0.1342 0.7789
vt 0.0177 0.6000
vt 0.6276 0.6005
vt 0.4947 0.7821
vt 0.3154 0.7165
vt 0.3153 0.5775
vt 0.1349 0.7793
vt 0.0185 0.6004
vt 0.6268 0.6002
vt 0.4940 0.7818
vt 0.3146 0.7161
vt 0.3145 0.5771
vt 0.1342 0.7789
vt 0.0177 0.6000
vt 0.6268 0.6002
vt 0.4940 0.7818
vt 0.3146 0.7161
vt 0.3146 0.5771
vt 0.1342 0.7789
vt 0.0177 0.6000
vt 0.3209 0.9555
vt 0.3092 0.9488
vt 0.6268 0.6002
vt 0.4940 0.7818
vt 0.3146 0.7161
vt 0.3146 0.5771
vt 0.1342 0.7789
vt 0.0177 0.6000
vt 0.3092 0.9488
vt 0.2971 0.9554
vt 0.3305 0.0640
vt 0.3310 0.2107
vt 0.0228 0.1898
vt 0.0585 0.0353
vt 0.5981 0.0384
vt 0.6268 0.1901
vt 0.3305 0.0640
vt 0.3310 0.2107
vt 0.0228 0.1898
vt 0.0585 0.0353
vt 0.5981 0.0384
vt 0.6268 0.1901
vt 0.3304 0.0639
vt 0.3309 0.2107
vt 0.0227 0.1898
vt 0.0584 0.0353
vt 0.5980 0.0384
vt 0.6267 0.1901
vt 0.3312 0.0643
vt 0.3318 0.2111
vt 0.0235 0.1901
vt 0.0592 0.0357
vt 0.5989 0.0388
vt 0.6276 0.1905
vt 0.3305 0.0640
vt 0.3310 0.2107
vt 0.0228 0.1898
vt 0.0585 0.0353
vt 0.5981 0.0384
vt 0.6268 0.1901
vt 0.3305 0.0640
vt 0.3310 0.2107
vt 0.0228 0.1898
vt 0.0585 0.0353
vt 0.5981 0.0384
vt 0.6268 0.1901
vt 0.3305 0.0640
vt 0.3310 0.2107
vt 0.0228 0.1898
vt 0.0585 0.0353
vt 0.5981 0.0384
vt 0.6268 0.1901
vt 0.3092 0.9488
vt 0.2971 0.9554
vt 0.3210 0.9555
vt 0.3093 0.9487
vt 0.3092 0.9488
vt 0.2971 0.9554
vt 0.3092 0.9488
vt 0.2971 0.9554
vt 0.3217 0.9559
vt 0.3100 0.9491
vt 0.2971 0.9554
vt 0.3209 0.9555
vt 0.2971 0.9554
vt 0.3209 0.9555
vt 0.2978 0.9558
vt 0.3209 0.9555
vt 0.3209 0.9555
vt 0.2838 0.9515
vt 0.3005 0.9515
vt 0.3110 0.9619
vt 0.3299 0.9692
vt 0.3260 0.9770
vt 0.2874 0.9593
vt 0.3448 0.9656
vt 0.2771 0.9656
vt 0.3345 0.9593
vt 0.2921 0.9692
vt 0.3381 0.9515
vt 0.2959 0.9770
vt 0.3215 0.9515
vt 0.3110 0.9735
vt 0.3110 0.9452
vn 0.6235 0.0000 0.7818
vn -0.2225 0.0000 0.9749
vn -0.9010 0.0000 0.4339
vn -0.9010 0.0000 -0.4339
vn -0.2225 0.0000 -0.9749
vn 0.6235 0.0000 -0.7818
vn 1.0000 0.0000 0.0000
vn -0.4097 0.2883 -0.8655
vn 0.9321 0.2883 -0.2193
vn 0.4212 0.2883 -0.8599
vn 0.7526 0.2883 0.5920
vn 0.9349 0.2883 -0.2069
vn 0.0064 0.2883 0.9575
vn 0.7446 0.2883 0.6020
vn -0.7446 0.2883 0.6020
vn -0.0064 0.2883 0.9575
vn -0.9349 0.2883 -0.2069
vn -0.7526 0.2883 0.5920
vn -0.4212 0.2883 -0.8599
vn -0.1334 0.9855 0.1049
vn -0.9321 0.2883 -0.2193
vn 0.4097 0.2883 -0.8655
vn 0.0011 0.9855 0.1697
vn 0.4117 -0.2726 -0.8696
vn 0.4278 -0.0124 -0.9038
vn -0.9366 -0.2726 -0.2203
vn -0.9734 -0.0124 -0.2290
vn -0.4232 -0.2726 -0.8640
vn -0.4398 -0.0124 -0.8980
vn -0.7562 -0.2726 0.5949
vn -0.7859 -0.0124 0.6182
vn -0.9394 -0.2726 -0.2078
vn -0.9763 -0.0124 -0.2160
vn -0.0064 -0.2726 0.9621
vn -0.0067 -0.0124 0.9999
vn -0.7482 -0.2726 0.6049
vn -0.7776 -0.0124 0.6286
vn 0.7482 -0.2726 0.6049
vn 0.7776 -0.0124 0.6286
vn 0.0064 -0.2726 0.9621
vn 0.0067 -0.0124 0.9999
vn 0.9394 -0.2726 -0.2078
vn 0.9763 -0.0124 -0.2160
vn 0.7562 -0.2726 0.5949
vn 0.7859 -0.0124 0.6182
vn 0.4232 -0.2726 -0.8640
vn 0.4398 -0.0124 -0.8980
vn 0.9366 -0.2726 -0.2203
vn 0.9734 -0.0124 -0.2290
vn -0.4117 -0.2726 -0.8696
vn -0.4278 -0.0124 -0.9038
vn 0.1334 0.9855 0.1049
vn -0.0011 0.9855 0.1697
vn 0.0726 0.9855 -0.1534
vn 0.1652 0.9855 -0.0389
vn 0.1320 0.9855 0.1067
vn -0.0747 0.9855 -0.1524
vn 0.1657 0.9855 -0.0367
vn -0.1657 0.9855 -0.0367
vn 0.0747 0.9855 -0.1524
vn -0.1320 0.9855 0.1067
vn -0.0726 0.9855 -0.1534
vn -0.1652 0.9855 -0.0389
vn 0.0000 1.0000 0.0000
s off
f 1/1/1 2/2/1 4/3/1 3/4/1
f 5/5/2 6/6/2 8/7/2 7/8/2
f 9/9/3 10/10/3 12/11/3 11/12/3
f 13/13/4 14/14/4 16/15/4 15/16/4
f 17/17/5 18/18/5 20/19/5 19/20/5
f 21/21/6 22/22/6 24/23/6 23/24/6
f 25/25/7 26/26/7 28/27/7 27/28/7
f 58/29/8 30/30/8 32/31/8 59/32/8
f 59/32/9 32/31/9 34/33/9 61/34/9
f 61/35/10 34/36/10 36/37/10 63/38/10
f 63/38/11 36/37/11 38/39/11 65/40/11
f 65/41/12 38/42/12 40/43/12 67/44/12
f 67/44/13 40/43/13 42/45/13 69/46/13
f 69/47/14 42/48/14 44/49/14 71/50/14
f 71/50/15 44/49/15 46/51/15 73/52/15
f 73/53/16 46/54/16 48/55/16 75/56/16
f 75/56/17 48/55/17 50/57/17 77/58/17
f 77/59/18 50/60/18 52/61/18 79/62/18
f 79/62/19 52/61/19 54/63/19 81/64/19
f 52/61/20 50/60/20 95/65/20 96/66/20
f 81/67/21 54/68/21 56/69/21 83/70/21
f 83/70/22 56/69/22 30/71/22 58/72/22
f 42/45/23 40/43/23 90/73/23 91/74/23
f 55/75/24 84/76/24 57/77/24 29/78/24
f 84/76/25 83/70/25 58/72/25 57/77/25
f 53/79/26 82/80/26 84/76/26 55/75/26
f 82/80/27 81/67/27 83/70/27 84/76/27
f 51/81/28 80/82/28 82/83/28 53/84/28
f 80/82/29 79/62/29 81/64/29 82/83/29
f 49/85/30 78/86/30 80/82/30 51/81/30
f 78/86/31 77/59/31 79/62/31 80/82/31
f 47/87/32 76/88/32 78/89/32 49/90/32
f 76/88/33 75/56/33 77/58/33 78/89/33
f 45/91/34 74/92/34 76/88/34 47/87/34
f 74/92/35 73/53/35 75/56/35 76/88/35
f 43/93/36 72/94/36 74/95/36 45/96/36
f 72/94/37 71/50/37 73/52/37 74/95/37
f 41/97/38 70/98/38 72/94/38 43/93/38
f 70/98/39 69/47/39 71/50/39 72/94/39
f 39/99/40 68/100/40 70/101/40 41/102/40
f 68/100/41 67/44/41 69/46/41 70/101/41
f 37/103/42 66/104/42 68/100/42 39/99/42
f 66/104/43 65/41/43 67/44/43 68/100/43
f 35/105/44 64/106/44 66/107/44 37/108/44
f 64/106/45 63/38/45 65/40/45 66/107/45
f 33/109/46 62/110/46 64/106/46 35/105/46
f 62/110/47 61/35/47 63/38/47 64/106/47
f 31/111/48 60/112/48 62/113/48 33/114/48
f 60/112/49 59/32/49 61/34/49 62/113/49
f 29/115/50 57/116/50 60/112/50 31/111/50
f 57/116/51 58/29/51 59/32/51 60/112/51
f 38/39/52 36/37/52 88/117/52 89/118/52
f 48/55/53 46/54/53 93/119/53 94/120/53
f 30/71/54 56/69/54 98/121/54 85/122/54
f 34/33/55 32/31/55 86/123/55 87/124/55
f 44/49/56 42/48/56 91/125/56 92/126/56
f 54/63/57 52/61/57 96/66/57 97/127/57
f 40/43/58 38/42/58 89/128/58 90/73/58
f 50/57/59 48/55/59 94/120/59 95/129/59
f 36/37/60 34/36/60 87/130/60 88/117/60
f 46/51/61 44/49/61 92/126/61 93/131/61
f 32/31/62 30/30/62 85/132/62 86/123/62
f 56/69/63 54/68/63 97/133/63 98/121/63
f 94/134/64 93/135/64 99/136/64
f 87/137/64 86/138/64 99/136/64
f 95/139/64 94/134/64 99/136/64
f 88/140/64 87/137/64 99/136/64
f 96/141/64 95/139/64 99/136/64
f 89/142/64 88/140/64 99/136/64
f 97/143/64 96/141/64 99/136/64
f 90/144/64 89/142/64 99/136/64
f 98/145/64 97/143/64 99/136/64
f 91/146/64 90/144/64 99/136/64
f 85/147/64 98/145/64 99/136/64
f 92/148/64 91/146/64 99/136/64
f 93/135/64 92/148/64 99/136/64
f 86/138/64 85/147/64 99/136/64
