# Blender v2.77 (sub 0) OBJ File: ''
# www.blender.org
o Cylinder
v -0.000000 -0.500000 0.250000
v -0.000000 0.000000 0.250000
v -0.125000 -0.500000 0.216506
v -0.125000 0.000000 0.216506
v -0.216506 -0.500000 0.125000
v -0.216506 0.000000 0.125000
v -0.250000 -0.500000 0.000000
v -0.250000 0.000000 0.000000
v -0.216506 -0.500000 -0.125000
v -0.216506 0.000000 -0.125000
v -0.125000 -0.500000 -0.216506
v -0.125000 0.000000 -0.216506
v -0.000000 -0.500000 -0.250000
v -0.000000 0.000000 -0.250000
v 0.125000 -0.500000 -0.216506
v 0.125000 0.000000 -0.216506
v 0.216506 -0.500000 -0.125000
v 0.216506 0.000000 -0.125000
v 0.250000 -0.500000 -0.000000
v 0.250000 0.000000 -0.000000
v 0.216506 -0.500000 0.125000
v 0.216506 0.000000 0.125000
v 0.125000 -0.500000 0.216506
v 0.125000 0.000000 0.216506
vt 0.999881 0.000119
vt 0.999881 0.322018
vt 0.916568 0.322018
vt 0.916567 0.000119
vt 0.833254 0.322018
vt 0.833254 0.000119
vt 0.749941 0.322018
vt 0.749940 0.000119
vt 0.666627 0.322018
vt 0.666627 0.000119
vt 0.583314 0.322018
vt 0.583313 0.000119
vt 0.500000 0.322018
vt 0.500000 0.000119
vt 0.416687 0.322018
vt 0.416686 0.000119
vt 0.333373 0.322018
vt 0.333373 0.000119
vt 0.250060 0.322018
vt 0.250060 0.000119
vt 0.166746 0.322018
vt 0.166746 0.000119
vt 0.114068 0.633186
vt 0.041916 0.591529
vt 0.000260 0.519378
vt 0.000260 0.436064
vt 0.041916 0.363912
vt 0.114068 0.322256
vt 0.197381 0.322256
vt 0.269533 0.363912
vt 0.311190 0.436064
vt 0.311190 0.519377
vt 0.269533 0.591529
vt 0.197381 0.633186
vt 0.083433 0.322018
vt 0.083433 0.000119
vt 0.000119 0.322018
vt 0.000119 0.000119
vt 0.197241 0.322256
vt 0.269392 0.363913
vt 0.311049 0.436064
vt 0.311049 0.519378
vt 0.269392 0.591529
vt 0.197241 0.633186
vt 0.113927 0.633186
vt 0.041776 0.591529
vt 0.000119 0.519377
vt 0.000119 0.436064
vt 0.041776 0.363912
vt 0.113927 0.322256
vn -0.258800 0.000000 0.965900
vn -0.707100 0.000000 0.707100
vn -0.965900 0.000000 0.258800
vn -0.965900 0.000000 -0.258800
vn -0.707100 0.000000 -0.707100
vn -0.258800 0.000000 -0.965900
vn 0.258800 0.000000 -0.965900
vn 0.707100 0.000000 -0.707100
vn 0.965900 0.000000 -0.258800
vn 0.965900 0.000000 0.258800
vn 0.000000 1.000000 0.000000
vn 0.707100 0.000000 0.707100
vn 0.258800 0.000000 0.965900
vn 0.000000 -1.000000 0.000000
s off
f 1/1/1 2/2/1 4/3/1 3/4/1
f 3/4/2 4/3/2 6/5/2 5/6/2
f 5/6/3 6/5/3 8/7/3 7/8/3
f 7/8/4 8/7/4 10/9/4 9/10/4
f 9/10/5 10/9/5 12/11/5 11/12/5
f 11/12/6 12/11/6 14/13/6 13/14/6
f 13/14/7 14/13/7 16/15/7 15/16/7
f 15/16/8 16/15/8 18/17/8 17/18/8
f 17/18/9 18/17/9 20/19/9 19/20/9
f 19/20/10 20/19/10 22/21/10 21/22/10
f 4/23/11 2/24/11 24/25/11 22/26/11 20/27/11 18/28/11 16/29/11 14/30/11 12/31/11 10/32/11 8/33/11 6/34/11
f 21/22/12 22/21/12 24/35/12 23/36/12
f 23/36/13 24/35/13 2/37/13 1/38/13
f 1/39/14 3/40/14 5/41/14 7/42/14 9/43/14 11/44/14 13/45/14 15/46/14 17/47/14 19/48/14 21/49/14 23/50/14
